<?xml version="1.0" ?><svg id="ART" viewBox="0 0 150 150" xmlns="http://www.w3.org/2000/svg"><defs><style>.cls-1,.cls-3{fill:#261c1a;}.cls-1,.cls-2,.cls-3,.cls-4,.cls-5{stroke:#000;stroke-miterlimit:10;}.cls-1{stroke-width:3px;}.cls-2{fill:#fceebb;stroke-width:1.98px;}.cls-3,.cls-4{stroke-width:4px;}.cls-4{fill:#3f3432;}.cls-5{fill:#fff;stroke-width:2px;}.cls-6{fill:#190e0c;}</style></defs><title/><path class="cls-1" d="M103.95,77.5a6.06,6.06,0,0,1,2.8,1c16.72,10.75,29.41.47,35.62-5.27C134.8,71.08,121,60.6,107.63,69.39,97.42,76.11,101.47,77.31,103.95,77.5Z"/><path class="cls-1" d="M46.05,77.5a6.06,6.06,0,0,0-2.8,1C26.54,89.25,13.85,79,7.64,73.23,15.2,71.08,29,60.6,42.37,69.39,52.58,76.11,48.53,77.31,46.05,77.5Z"/><path class="cls-2" d="M113.94,15c12.36,5.56,23.69,40.07,0,50.9s-30.75-14.39-30.73-17C95.15,55.16,126.84,54,113.94,15Z"/><path class="cls-2" d="M36.06,15c-12.36,5.56-23.69,40.07,0,50.9s30.75-14.39,30.73-17C54.85,55.16,23.16,54,36.06,15Z"/><path class="cls-3" d="M115.46,74.3c0,12.54-13.09,19.06-13.09,24.16,0,20.23-.08,29.8-12.34,33.18a3.24,3.24,0,0,1-3.24,3.16H63.22A3.24,3.24,0,0,1,60,131.64c-12.26-3.38-12.34-12.95-12.34-33.18,0-5.1-13.1-11.62-13.1-24.16,0-29.23,18.12-33.75,40.46-33.75S115.46,45.07,115.46,74.3Z"/><path class="cls-4" d="M94.85,114.51c0,7.59-4.39,12.46-8.8,12.46s-7-2.69-10.08-2.69c-3.38,0-6.26,2.69-11.11,2.69s-9.71-4.86-9.71-12.46,7-12.46,11.3-12.46,2.81,2.17,9.52,2.17c6.08,0,4.69-2.17,8.63-2.17S94.85,106.91,94.85,114.51Z"/><path class="cls-5" d="M102.36,71.59c0,3.92-5.6,9.52-9.52,9.52A7.09,7.09,0,0,1,85.75,74c0-2.26,3.53-4.54,5.89-5.25C96.2,67.39,102.36,67.68,102.36,71.59Z"/><circle cx="92.28" cy="72.7" r="3.97"/><path class="cls-5" d="M47.62,71.59c0,3.92,5.18,9.52,8.81,9.52A6.84,6.84,0,0,0,63,74c0-2.26-3.27-4.54-5.45-5.25C53.32,67.39,47.62,67.68,47.62,71.59Z"/><ellipse cx="56.94" cy="72.7" rx="3.67" ry="3.97"/><ellipse class="cls-6" cx="65.75" cy="116.22" rx="2.88" ry="1.71"/><ellipse class="cls-6" cx="84.24" cy="116.22" rx="2.88" ry="1.71"/></svg>