<?xml version="1.0" encoding="UTF-8" standalone="no"?>
<svg
   xmlns:dc="http://purl.org/dc/elements/1.1/"
   xmlns:cc="http://creativecommons.org/ns#"
   xmlns:rdf="http://www.w3.org/1999/02/22-rdf-syntax-ns#"
   xmlns:svg="http://www.w3.org/2000/svg"
   xmlns="http://www.w3.org/2000/svg"
   xmlns:sodipodi="http://sodipodi.sourceforge.net/DTD/sodipodi-0.dtd"
   xmlns:inkscape="http://www.inkscape.org/namespaces/inkscape"
   viewBox="0 0 60 60"
   version="1.1"
   id="svg2222"
   sodipodi:docname="jauge.svg"
   inkscape:export-filename="/Users/jean/Desktop/JS/Memory-Beer/Pictures/jauge.png"
   inkscape:export-xdpi="96"
   inkscape:export-ydpi="96"
   inkscape:version="1.0.1 (c497b03c, 2020-09-10)">
  <metadata
     id="metadata2228">
    <rdf:RDF>
      <cc:Work
         rdf:about="">
        <dc:format>image/svg+xml</dc:format>
        <dc:type
           rdf:resource="http://purl.org/dc/dcmitype/StillImage" />
      </cc:Work>
    </rdf:RDF>
  </metadata>
  <defs
     id="defs2226" />
  <sodipodi:namedview
     pagecolor="#ffffff"
     bordercolor="#666666"
     borderopacity="1"
     objecttolerance="10"
     gridtolerance="10"
     guidetolerance="10"
     inkscape:pageopacity="0"
     inkscape:pageshadow="2"
     inkscape:window-width="1280"
     inkscape:window-height="755"
     id="namedview2224"
     showgrid="false"
     inkscape:zoom="2.111593"
     inkscape:cx="-46.108157"
     inkscape:cy="26.25712"
     inkscape:window-x="0"
     inkscape:window-y="23"
     inkscape:window-maximized="1"
     inkscape:current-layer="svg2222" />
  <g
     id="colour"
     transform="matrix(-22323.166,0,0,0,659302.37,0)"
     inkscape:export-xdpi="122.15237"
     inkscape:export-ydpi="122.15237">
    <path
       d="m 10,17 31.81139,-0.11456 c 2,-2 2,-8 -3,-8 0,-2 -3,-6 -7,-4 0,-5 -10,-5 -10,-1 -4,-2 -6,0.78906 -6,3 -3,-1 -6,1 -5,4 -3,1 -4,4 -1,6"
       fill="#e0e0e0"
       id="path2176" />
    <path
       d="M 12.81244,6.86664 12.78058,6.87708 12.8114,6.88544 Z"
       fill="#e0e0e0"
       id="path2178" />
    <path
       d="m 38.89473,8.88544 c 1.10527,2.11456 2,6 0,8 h 3 c 2,-2 1.10527,-7.88544 -3,-8 z"
       fill="#c9c8c7"
       id="path2180" />
    <path
       d="M 13,12 C 12.71244,9.73129 14.38066,9.37225 16.756,9.66047 A 0.98373,0.98373 0 0 0 17.86358,8.956 c 0.42519,-1.75636 2.04926,-3.41757 4.87221,-2.49265 a 1.01856,1.01856 0 0 0 1.23755,-0.54879 c 1.018,-2.06278 5.28584,-2.50912 7.83416,-1.09119 -0.08472,-4.93616 -9.9961,-4.92084 -9.9961,-0.93793 -4,-2 -6,0.78906 -6,3 -3,-1 -6,1 -5,4 -3,1 -4,4 -1,6 l 0.132,0.08014 c 0.0921,-0.83228 6.26708,1.85427 2.10622,-2.79324 C 11,13 13.05338,12.42117 13,12 Z"
       fill="#f4f4f4"
       id="path2182" />
    <path
       d="M 31.87067,4.86084 C 31.84937,4.84857 31.82904,4.83539 31.8075,4.82336 c 3.7e-4,0.02118 0.0039,0.04071 0.0039,0.06207 0.02007,-0.01 0.03924,-0.01482 0.05926,-0.02459 z"
       fill="#f4f4f4"
       id="path2184" />
    <path
       d="M 36.66667,59 H 15.33333 A 5.17474,5.17474 0 0 1 10,54 V 17 h 32 v 37 a 5.17474,5.17474 0 0 1 -5.33333,5 z"
       fill="#ff9f00"
       id="path2186" />
    <path
       d="m 14,18 v 36 c 0,3.3137 2.38782,6 5.33331,6 h -4 C 12.38779,60 10,57.3137 10,54 V 18 Z"
       fill="#ffb15c"
       id="path2188" />
    <path
       d="m 38,17 v 36 c 0,3.3137 -2.38782,6 -5.33331,6 h 4 C 39.61218,59 42,56.3137 42,53 V 17 Z"
       fill="#e28703"
       id="path2190" />
    <path
       d="m 42,28 h 6.75 A 2.13608,2.13608 0 0 1 51,30 v 21 a 2.13608,2.13608 0 0 1 -2.25,2 H 42 v -4 h 3.75 A 1.14616,1.14616 0 0 0 47,48 V 33 A 1.14616,1.14616 0 0 0 45.75,32 H 42 Z"
       fill="#616161"
       id="path2192" />
    <rect
       fill="#e28703"
       height="25"
       rx="2"
       ry="2"
       width="4"
       x="15"
       y="29"
       id="rect2194" />
    <rect
       fill="#e28703"
       height="25"
       rx="2"
       ry="2"
       width="4"
       x="24"
       y="29"
       id="rect2196" />
    <rect
       fill="#e28703"
       height="25"
       rx="2"
       ry="2"
       width="4"
       x="33"
       y="29"
       id="rect2198" />
    <path
       d="m 18,14 a 0.99974,0.99974 0 0 1 -1,-1 c 0,-2.20605 2.24316,-4 5,-4 a 1,1 0 0 1 0,2 c -1.626,0 -3,0.916 -3,2 a 0.99974,0.99974 0 0 1 -1,1 z"
       fill="#c9c8c7"
       id="path2200" />
    <path
       d="m 34,14 a 0.99974,0.99974 0 0 1 -1,-1 1.001,1.001 0 0 0 -1,-1 1,1 0 0 1 0,-2 3.00328,3.00328 0 0 1 3,3 0.99974,0.99974 0 0 1 -1,1 z"
       fill="#c9c8c7"
       id="path2202" />
    <path
       d="M 28,8 A 1.00069,1.00069 0 0 1 27.02344,7.21582 2.11529,2.11529 0 0 0 26,7 1,1 0 0 1 26,5 c 1.73828,0 3,0.84082 3,2 a 0.99974,0.99974 0 0 1 -1,1 z"
       fill="#c9c8c7"
       id="path2204" />
  </g>
  <g
     data-name="Layer 1"
     id="Layer_1"
     transform="matrix(-22323.166,0,0,0,660197.08,0)"
     inkscape:export-xdpi="122.15237"
     inkscape:export-ydpi="122.15237">
    <path
       d="M 48.75,27.00036 H 43 V 17.34948 A 6.73675,6.73675 0 0 0 43.7876,11.02184 4.70763,4.70763 0 0 0 39.87207,8.056 6.71818,6.71818 0 0 0 37.00732,4.28354 5.31858,5.31858 0 0 0 32.78516,3.639 4.54888,4.54888 0 0 0 30.80811,1.22005 8.05922,8.05922 0 0 0 26.58252,0.11461 c -2.58057,0 -4.5498,0.98535 -5.27734,2.51465 A 4.73668,4.73668 0 0 0 17.16504,2.94274 4.70175,4.70175 0 0 0 15.15234,5.78747 5.034,5.034 0 0 0 10.94726,7.09216 3.87054,3.87054 0 0 0 9.83935,10.40075 4.50361,4.50361 0 0 0 7.22021,13.7113 4.14822,4.14822 0 0 0 9,17.5006 v 36.49976 a 6.18047,6.18047 0 0 0 6.3335,6 h 21.333 a 6.18047,6.18047 0 0 0 6.3335,-6 h 5.75 a 3.13605,3.13605 0 0 0 3.25,-3 v -21 a 3.13605,3.13605 0 0 0 -3.25,-3 z m -7.75,-4 H 11 v -5 h 30 z m 2,10 h 2.75 c 0.15234,10e-4 0.24854,0.05859 0.25,0.002 l 0.023,14.91206 a 0.396,0.396 0 0 1 -0.27295,0.08594 H 43 Z M 11.31641,11.9486 A 0.99927,0.99927 0 0 0 11.94873,10.68395 2.00268,2.00268 0 0 1 12.36133,8.50719 3.30657,3.30657 0 0 1 15.6836,7.9486 0.99944,0.99944 0 0 0 17,7.00036 2.83993,2.83993 0 0 1 18.21631,4.64391 3.41546,3.41546 0 0 1 21.55274,4.89491 1.0001,1.0001 0 0 0 23,4.00036 C 23,2.77575 24.8457,2.11462 26.58252,2.11462 A 6.13875,6.13875 0 0 1 29.74752,2.9154 2.38173,2.38173 0 0 1 31,5.00036 1.0001,1.0001 0 0 0 32.44727,5.89489 3.41157,3.41157 0 0 1 35.95557,5.98473 4.35891,4.35891 0 0 1 38,9.00036 a 0.99974,0.99974 0 0 0 1,1 2.88207,2.88207 0 0 1 2.93994,1.78711 4.82116,4.82116 0 0 1 -0.41351,4.21289 H 10.34454 A 2.28079,2.28079 0 0 1 9.20214,13.97595 2.83265,2.83265 0 0 1 11.31641,11.9486 Z M 36.6665,58.00036 h -21.333 a 4.18113,4.18113 0 0 1 -4.3335,-4 v -29 h 30 v 29 a 4.18113,4.18113 0 0 1 -4.3335,4 z m 13.3335,-7 a 1.14711,1.14711 0 0 1 -1.25,1 H 43 v -2 h 2.75 a 2.13865,2.13865 0 0 0 2.25,-2 v -15 a 2.13865,2.13865 0 0 0 -2.25,-2 H 43 v -2 h 5.75 a 1.14711,1.14711 0 0 1 1.25,1 z"
       id="path2207" />
    <path
       d="m 17,28.00036 a 3.00328,3.00328 0 0 0 -3,3 v 21 a 3,3 0 0 0 6,0 v -21 a 3.00328,3.00328 0 0 0 -3,-3 z m 1,24 a 1,1 0 0 1 -2,0 v -21 a 1,1 0 0 1 2,0 z"
       id="path2209" />
    <path
       d="m 26,28.00036 a 3.00328,3.00328 0 0 0 -3,3 v 21 a 3,3 0 0 0 6,0 v -21 a 3.00328,3.00328 0 0 0 -3,-3 z m 1,24 a 1,1 0 0 1 -2,0 v -21 a 1,1 0 0 1 2,0 z"
       id="path2211" />
    <path
       d="m 35,28.00036 a 3.00328,3.00328 0 0 0 -3,3 v 21 a 3,3 0 1 0 6,0 v -21 a 3.00328,3.00328 0 0 0 -3,-3 z m 1,24 a 1,1 0 1 1 -2,0 v -21 a 1,1 0 0 1 2,0 z"
       id="path2213" />
    <path
       d="m 18,14.00036 a 0.99974,0.99974 0 0 0 1,-1 c 0,-1.084 1.374,-2 3,-2 a 1,1 0 0 0 0,-2 c -2.75684,0 -5,1.79395 -5,4 a 0.99974,0.99974 0 0 0 1,1 z"
       id="path2215" />
    <path
       d="m 32,12.00036 a 1.001,1.001 0 0 1 1,1 1,1 0 0 0 2,0 3.00328,3.00328 0 0 0 -3,-3 1,1 0 0 0 0,2 z"
       id="path2217" />
    <path
       d="M 26,7.00036 A 2.11529,2.11529 0 0 1 27.02344,7.21618 1.00007,1.00007 0 0 0 29,7.00036 c 0,-1.15918 -1.26172,-2 -3,-2 a 1,1 0 0 0 0,2 z"
       id="path2219" />
  </g>
</svg>
